<svg width="256" height="384" viewBox="0 0 256 384" fill="none" xmlns="http://www.w3.org/2000/svg">
  <ellipse cx="134" cy="353" rx="70" ry="18" fill="#1A1513" fill-opacity="0.2"/>
  <rect x="85" y="104" width="98" height="146" rx="28" fill="#20262C"/>
  <rect x="99" y="122" width="72" height="114" rx="20" fill="#454C55"/>
  <rect x="106" y="240" width="56" height="72" rx="20" fill="#6D7A88"/>
  <path d="M86 139L60 181L73 192L98 165L108 177L109 142L86 139Z" fill="#20262C"/>
  <path d="M182 138L217 136L238 171L223 180L204 164L181 168L182 138Z" fill="#20262C"/>
  <circle cx="64" cy="193" r="14" fill="#D6A67F"/>
  <circle cx="237" cy="171" r="14" fill="#D6A67F"/>
  <rect x="104" y="304" width="26" height="56" rx="13" transform="rotate(3 104 304)" fill="#6D7A88"/>
  <rect x="140" y="302" width="26" height="56" rx="13" transform="rotate(-4 140 302)" fill="#6D7A88"/>
  <rect x="94" y="349" width="40" height="14" rx="7" transform="rotate(2 94 349)" fill="#201916"/>
  <rect x="136" y="347" width="40" height="14" rx="7" transform="rotate(-3 136 347)" fill="#201916"/>
  <circle cx="134" cy="66" r="40" fill="#D6A67F"/>
  <path d="M94 63C94 40.9086 111.909 23 134 23C156.091 23 174 40.9086 174 63V73H94V63Z" fill="#2D221F"/>
  <path d="M100 58C110 39 127 29 147 30C158.411 30.5706 169.8 34.6 177 44L165 48L151 43L139 47L126 42L110 50L100 58Z" fill="#2D221F"/>
  <circle cx="119" cy="67" r="4.5" fill="#1E1612"/>
  <circle cx="150" cy="67" r="4.5" fill="#1E1612"/>
  <path d="M118 88C128.667 93.3333 139.333 93.3333 150 88" stroke="#9A6645" stroke-width="4" stroke-linecap="round"/>
  <rect x="99" y="139" width="70" height="14" rx="7" fill="#D9C27D"/>
</svg>
