<svg width="256" height="384" viewBox="0 0 256 384" fill="none" xmlns="http://www.w3.org/2000/svg">
  <ellipse cx="126" cy="334" rx="86" ry="21" fill="#1A1513" fill-opacity="0.2"/>
  <g transform="rotate(90 128 214)">
    <rect x="79" y="106" width="98" height="146" rx="28" fill="#20262C"/>
    <rect x="93" y="124" width="72" height="114" rx="20" fill="#454C55"/>
    <rect x="100" y="242" width="56" height="72" rx="20" fill="#6D7A88"/>
    <path d="M80 141L54 182L67 193L93 166L101 178L103 144L80 141Z" fill="#20262C"/>
    <path d="M176 141L202 182L189 193L163 166L155 178L153 144L176 141Z" fill="#20262C"/>
    <circle cx="58" cy="193" r="14" fill="#D6A67F"/>
    <circle cx="198" cy="193" r="14" fill="#D6A67F"/>
    <rect x="98" y="304" width="26" height="56" rx="13" fill="#6D7A88"/>
    <rect x="132" y="304" width="26" height="56" rx="13" fill="#6D7A88"/>
    <circle cx="128" cy="68" r="40" fill="#D6A67F"/>
    <path d="M88 65C88 42.9086 105.909 25 128 25C150.091 25 168 42.9086 168 65V75H88V65Z" fill="#2D221F"/>
  </g>
</svg>
