<svg width="256" height="384" viewBox="0 0 256 384" fill="none" xmlns="http://www.w3.org/2000/svg">
  <ellipse cx="122" cy="352" rx="64" ry="18" fill="#1A1513" fill-opacity="0.2"/>
  <rect x="70" y="116" width="98" height="146" rx="28" fill="#20262C"/>
  <rect x="84" y="134" width="72" height="114" rx="20" fill="#454C55"/>
  <rect x="91" y="251" width="56" height="72" rx="20" fill="#6D7A88"/>
  <path d="M71 150L49 188L61 198L86 174L95 183L94 153L71 150Z" fill="#20262C"/>
  <path d="M167 149L189 186L178 198L153 174L145 182L144 153L167 149Z" fill="#20262C"/>
  <circle cx="53" cy="198" r="14" fill="#D6A67F"/>
  <circle cx="177" cy="197" r="14" fill="#D6A67F"/>
  <rect x="91" y="314" width="26" height="56" rx="13" transform="rotate(-8 91 314)" fill="#6D7A88"/>
  <rect x="127" y="314" width="26" height="54" rx="13" transform="rotate(5 127 314)" fill="#6D7A88"/>
  <rect x="80" y="355" width="40" height="14" rx="7" transform="rotate(-6 80 355)" fill="#201916"/>
  <rect x="121" y="356" width="40" height="14" rx="7" transform="rotate(3 121 356)" fill="#201916"/>
  <circle cx="119" cy="79" r="40" fill="#D6A67F"/>
  <path d="M79 76C79 53.9086 96.9086 36 119 36C141.091 36 159 53.9086 159 76V86H79V76Z" fill="#2D221F"/>
  <path d="M85 71C95 52 112 42 132 43C143.411 43.5706 154.8 47.6 162 57L150 61L136 56L124 60L111 55L95 63L85 71Z" fill="#2D221F"/>
  <circle cx="104" cy="80" r="4.5" fill="#1E1612"/>
  <circle cx="135" cy="79" r="4.5" fill="#1E1612"/>
  <path d="M103 101C113.667 104.333 124.333 104.333 135 100" stroke="#9A6645" stroke-width="4" stroke-linecap="round"/>
  <rect x="84" y="151" width="70" height="14" rx="7" fill="#D9C27D"/>
</svg>
