<svg width="256" height="384" viewBox="0 0 256 384" fill="none" xmlns="http://www.w3.org/2000/svg">
  <ellipse cx="136" cy="355" rx="76" ry="18" fill="#130D0D" fill-opacity="0.22"/>
  <path d="M80 125C80 89.6538 108.654 61 144 61H150C184.242 61 216.5 93.2585 216.5 133.5V272H80V125Z" fill="#3D0F0F"/>
  <path d="M95 138C95 110.938 116.938 89 144 89H148C172.853 89 193 109.147 193 134V263H95V138Z" fill="#7D1F1F"/>
  <path d="M133 92L156 131L117 131L133 92Z" fill="#D3A44F"/>
  <rect x="98" y="266" width="94" height="52" rx="18" fill="#221A1A"/>
  <path d="M79 148L49 205L64 214L97 182L109 194L104 150L79 148Z" fill="#3D0F0F"/>
  <path d="M213 145L242 141L250 183L231 184L214 170L190 173L213 145Z" fill="#3D0F0F"/>
  <circle cx="58" cy="213" r="15" fill="#D4A37B"/>
  <circle cx="248" cy="183" r="8" fill="#D4A37B"/>
  <rect x="100" y="312" width="28" height="53" rx="14" transform="rotate(3 100 312)" fill="#221A1A"/>
  <rect x="144" y="311" width="28" height="53" rx="14" transform="rotate(-5 144 311)" fill="#221A1A"/>
  <rect x="89" y="354" width="44" height="14" rx="7" transform="rotate(2 89 354)" fill="#0F0B0B"/>
  <rect x="136" y="351" width="44" height="14" rx="7" transform="rotate(-4 136 351)" fill="#0F0B0B"/>
  <circle cx="145" cy="57" r="42" fill="#D4A37B"/>
  <path d="M103 53C103 29.804 121.804 11 145 11C168.196 11 187 29.804 187 53V65H103V53Z" fill="#151515"/>
  <path d="M107 52C114 25 137 11 158 13C171 14.5 183 23.5 188 39L175 38L161 46L149 38L132 44L118 40L107 52Z" fill="#151515"/>
  <circle cx="130" cy="57" r="5" fill="#1C1512"/>
  <circle cx="161" cy="57" r="5" fill="#1C1512"/>
  <path d="M130 81C140.333 89 150.667 89 161 81" stroke="#8C5436" stroke-width="4" stroke-linecap="round"/>
  <rect x="104" y="145" width="82" height="16" rx="8" fill="#D3A44F"/>
  <rect x="169" y="123" width="46" height="100" rx="12" fill="#2C2020"/>
  <path d="M169 142H215" stroke="#D3A44F" stroke-width="6"/>
  <path d="M169 164H215" stroke="#D3A44F" stroke-width="6"/>
  <path d="M169 186H215" stroke="#D3A44F" stroke-width="6"/>
</svg>
