<svg width="256" height="384" viewBox="0 0 256 384" fill="none" xmlns="http://www.w3.org/2000/svg">
  <ellipse cx="134" cy="352" rx="68" ry="18" fill="#1E1816" fill-opacity="0.2"/>
  <path d="M102 131C102 98.4152 128.415 72 161 72H165C191.585 72 213 93.4152 213 120V245H102V131Z" fill="#1F4E88"/>
  <path d="M108 140C108 113.49 129.49 92 156 92H159C181.091 92 199 109.909 199 132V239H108V140Z" fill="#D5E0EB"/>
  <path d="M148 90L167 124L135 124L148 90Z" fill="#D96B2E"/>
  <rect x="114" y="237" width="82" height="67" rx="18" fill="#344454"/>
  <rect x="118" y="229" width="74" height="18" rx="9" fill="#243240"/>
  <path d="M101 148L79 175L70 203L84 207L98 184L109 189L101 148Z" fill="#1F4E88"/>
  <path d="M194 146L225 142L241 170L227 180L209 165L193 168L194 146Z" fill="#1F4E88"/>
  <circle cx="74" cy="204" r="13" fill="#EFC39D"/>
  <circle cx="239" cy="171" r="13" fill="#EFC39D"/>
  <rect x="120" y="306" width="27" height="56" rx="13.5" transform="rotate(4 120 306)" fill="#344454"/>
  <rect x="156" y="303" width="27" height="56" rx="13.5" transform="rotate(-6 156 303)" fill="#344454"/>
  <rect x="110" y="349" width="43" height="14" rx="7" transform="rotate(2 110 349)" fill="#17110D"/>
  <rect x="149" y="346" width="43" height="14" rx="7" transform="rotate(-4 149 346)" fill="#17110D"/>
  <circle cx="149" cy="64" r="39" fill="#EFC39D"/>
  <path d="M111 63C111 41.4609 128.461 24 150 24H153C174.539 24 192 41.4609 192 63V72H111V63Z" fill="#251910"/>
  <path d="M119 53C124.605 33.3602 140.486 22 157 22C171.428 22 184.858 30.129 190 48L176 44L163 49L151 42L135 49L119 53Z" fill="#251910"/>
  <circle cx="136" cy="63" r="4.5" fill="#231915"/>
  <circle cx="165" cy="63" r="4.5" fill="#231915"/>
  <path d="M144 81C148.635 84.2857 154.365 84.2857 159 81" stroke="#9B5E3F" stroke-width="3.5" stroke-linecap="round"/>
  <path d="M103 120L94 216L117 213L124 128L103 120Z" fill="#B9793E"/>
  <rect x="88" y="112" width="24" height="26" rx="8" fill="#6A4324"/>
  <path d="M88 115C96 109.667 104 109.667 112 115" stroke="#D2A06C" stroke-width="3" stroke-linecap="round"/>
</svg>
