<svg width="256" height="384" viewBox="0 0 256 384" fill="none" xmlns="http://www.w3.org/2000/svg">
  <defs>
    <linearGradient id="jacket2" x1="87" y1="103" x2="171" y2="258" gradientUnits="userSpaceOnUse">
      <stop stop-color="#2A5F98"/>
      <stop offset="1" stop-color="#1A426F"/>
    </linearGradient>
    <linearGradient id="shirt2" x1="103" y1="110" x2="164" y2="242" gradientUnits="userSpaceOnUse">
      <stop stop-color="#F2F5FA"/>
      <stop offset="1" stop-color="#D1DAE4"/>
    </linearGradient>
    <linearGradient id="pants2" x1="108" y1="234" x2="169" y2="342" gradientUnits="userSpaceOnUse">
      <stop stop-color="#485968"/>
      <stop offset="1" stop-color="#293644"/>
    </linearGradient>
  </defs>
  <ellipse cx="128" cy="352" rx="60" ry="16" fill="#1E1816" fill-opacity="0.18"/>
  <path d="M93 136C93 104.56 118.56 79 150 79H160C188.719 79 212 102.281 212 131V247H93V136Z" fill="url(#jacket2)"/>
  <path d="M100 146C100 120.013 121.013 99 147 99H153C177.301 99 197 118.699 197 143V241H100V146Z" fill="url(#shirt2)"/>
  <path d="M142 95L160 130L129 130L142 95Z" fill="#D96B2E"/>
  <path d="M108 238H184V301C184 316.464 171.464 329 156 329H136C120.536 329 108 316.464 108 301V238Z" fill="url(#pants2)"/>
  <path d="M95 151L70 180L61 211L76 215L90 186L100 194L95 151Z" fill="#24507F"/>
  <path d="M192 151L219 179L230 208L214 215L196 184L185 190L192 151Z" fill="#24507F"/>
  <circle cx="63" cy="212" r="13" fill="#F0C59F"/>
  <circle cx="221" cy="209" r="13" fill="#F0C59F"/>
  <rect x="115" y="306" width="27" height="54" rx="13.5" fill="url(#pants2)"/>
  <rect x="150" y="304" width="27" height="56" rx="13.5" fill="url(#pants2)"/>
  <rect x="108" y="350" width="42" height="14" rx="7" fill="#17110D"/>
  <rect x="145" y="350" width="42" height="14" rx="7" fill="#17110D"/>
  <circle cx="145" cy="68" r="39" fill="#F0C59F"/>
  <path d="M107 67C107 45.46 124.461 28 146 28H149C170.539 28 188 45.46 188 67V76H107V67Z" fill="#251910"/>
  <path d="M116 58C121.5 38 137 27 153 27C167 27 180 35 186 52L172 48L159 53L147 46L131 53L116 58Z" fill="#251910"/>
  <circle cx="132" cy="67" r="4.5" fill="#231915"/>
  <circle cx="161" cy="67" r="4.5" fill="#231915"/>
  <path d="M140 85C144.635 88.286 150.365 88.286 155 85" stroke="#9B5E3F" stroke-width="3.5" stroke-linecap="round"/>
  <path d="M121 122L116 216L135 216L140 130L121 122Z" fill="#D2A06C" fill-opacity="0.34"/>
  <path d="M98 122L90 218L113 215L120 130L98 122Z" fill="#B9793E"/>
  <rect x="84" y="114" width="24" height="26" rx="8" fill="#6A4324"/>
  <path d="M84 117C92 111.667 100 111.667 108 117" stroke="#D2A06C" stroke-width="3" stroke-linecap="round"/>
</svg>
