<svg width="256" height="384" viewBox="0 0 256 384" fill="none" xmlns="http://www.w3.org/2000/svg">
  <defs>
    <linearGradient id="jacket" x1="88" y1="104" x2="170" y2="258" gradientUnits="userSpaceOnUse">
      <stop stop-color="#245992"/>
      <stop offset="1" stop-color="#173B66"/>
    </linearGradient>
    <linearGradient id="shirt" x1="103" y1="110" x2="164" y2="242" gradientUnits="userSpaceOnUse">
      <stop stop-color="#ECF1F8"/>
      <stop offset="1" stop-color="#CBD6E0"/>
    </linearGradient>
    <linearGradient id="pants" x1="108" y1="234" x2="169" y2="342" gradientUnits="userSpaceOnUse">
      <stop stop-color="#425262"/>
      <stop offset="1" stop-color="#27333F"/>
    </linearGradient>
    <radialGradient id="skinGlow" cx="0" cy="0" r="1" gradientUnits="userSpaceOnUse" gradientTransform="translate(143 71) rotate(90) scale(43 46)">
      <stop stop-color="#F0C59F"/>
      <stop offset="1" stop-color="#D59A73"/>
    </radialGradient>
  </defs>
  <ellipse cx="128" cy="352" rx="60" ry="16" fill="#1E1816" fill-opacity="0.18"/>
  <path d="M93 136C93 104.56 118.56 79 150 79H160C188.719 79 212 102.281 212 131V247H93V136Z" fill="url(#jacket)"/>
  <path d="M100 146C100 120.013 121.013 99 147 99H153C177.301 99 197 118.699 197 143V241H100V146Z" fill="url(#shirt)"/>
  <path d="M142 95L160 130L129 130L142 95Z" fill="#D96B2E"/>
  <path d="M109 238H183V301C183 316.464 170.464 329 155 329H137C121.536 329 109 316.464 109 301V238Z" fill="url(#pants)"/>
  <path d="M98 150L71 179L61 209L76 214L91 186L101 192L98 150Z" fill="#234D7E"/>
  <path d="M192 151L217 177L227 208L211 214L195 184L185 190L192 151Z" fill="#234D7E"/>
  <circle cx="64" cy="210" r="13" fill="url(#skinGlow)"/>
  <circle cx="221" cy="209" r="13" fill="url(#skinGlow)"/>
  <rect x="116" y="306" width="27" height="54" rx="13.5" fill="url(#pants)"/>
  <rect x="151" y="304" width="27" height="56" rx="13.5" fill="url(#pants)"/>
  <rect x="108" y="350" width="42" height="14" rx="7" fill="#17110D"/>
  <rect x="145" y="350" width="42" height="14" rx="7" fill="#17110D"/>
  <circle cx="145" cy="68" r="39" fill="url(#skinGlow)"/>
  <path d="M107 67C107 45.46 124.461 28 146 28H149C170.539 28 188 45.46 188 67V76H107V67Z" fill="#251910"/>
  <path d="M115 57C120.605 37.36 136.486 26 153 26C167.428 26 180.858 34.129 186 52L172 48L159 53L147 46L131 53L115 57Z" fill="#251910"/>
  <circle cx="132" cy="67" r="4.5" fill="#231915"/>
  <circle cx="161" cy="67" r="4.5" fill="#231915"/>
  <path d="M140 85C144.635 88.286 150.365 88.286 155 85" stroke="#9B5E3F" stroke-width="3.5" stroke-linecap="round"/>
  <path d="M120 121L114 216L135 216L141 129L120 121Z" fill="#D2A06C" fill-opacity="0.38"/>
  <path d="M123 126L115 213L130 213L136 132L123 126Z" fill="#1D1E25" fill-opacity="0.22"/>
  <path d="M98 122L90 218L113 215L120 130L98 122Z" fill="#B9793E"/>
  <rect x="84" y="114" width="24" height="26" rx="8" fill="#6A4324"/>
  <path d="M84 117C92 111.667 100 111.667 108 117" stroke="#D2A06C" stroke-width="3" stroke-linecap="round"/>
</svg>
