<svg width="256" height="384" viewBox="0 0 256 384" fill="none" xmlns="http://www.w3.org/2000/svg">
  <defs>
    <linearGradient id="jacket4" x1="90" y1="102" x2="170" y2="258" gradientUnits="userSpaceOnUse">
      <stop stop-color="#2A5F98"/>
      <stop offset="1" stop-color="#1A426F"/>
    </linearGradient>
    <linearGradient id="shirt4" x1="103" y1="110" x2="164" y2="242" gradientUnits="userSpaceOnUse">
      <stop stop-color="#F2F5FA"/>
      <stop offset="1" stop-color="#D1DAE4"/>
    </linearGradient>
    <linearGradient id="pants4" x1="108" y1="234" x2="169" y2="342" gradientUnits="userSpaceOnUse">
      <stop stop-color="#485968"/>
      <stop offset="1" stop-color="#293644"/>
    </linearGradient>
  </defs>
  <ellipse cx="128" cy="352" rx="62" ry="16" fill="#1E1816" fill-opacity="0.18"/>
  <path d="M97 134C97 102 123 76 155 76H161C188 76 209 97 209 124V246H97V134Z" fill="url(#jacket4)"/>
  <path d="M104 143C104 117 125 96 151 96H155C176 96 194 113 194 135V240H104V143Z" fill="url(#shirt4)"/>
  <path d="M145 93L164 127L132 127L145 93Z" fill="#D96B2E"/>
  <rect x="110" y="236" width="82" height="68" rx="18" fill="url(#pants4)"/>
  <path d="M95 150L70 176L56 211L72 216L89 187L102 194L95 150Z" fill="#24507F"/>
  <path d="M191 151L219 180L232 199L217 206L200 184L186 184L191 151Z" fill="#24507F"/>
  <circle cx="60" cy="212" r="13" fill="#F0C59F"/>
  <circle cx="219" cy="203" r="13" fill="#F0C59F"/>
  <rect x="111" y="304" width="27" height="58" rx="13.5" transform="rotate(14 111 304)" fill="url(#pants4)"/>
  <rect x="154" y="302" width="27" height="56" rx="13.5" transform="rotate(-4 154 302)" fill="url(#pants4)"/>
  <rect x="101" y="351" width="43" height="14" rx="7" transform="rotate(10 101 351)" fill="#17110D"/>
  <rect x="145" y="345" width="43" height="14" rx="7" transform="rotate(-2 145 345)" fill="#17110D"/>
  <circle cx="146" cy="65" r="39" fill="#F0C59F"/>
  <path d="M108 64C108 42.46 125.461 25 147 25H150C171.539 25 189 42.46 189 64V73H108V64Z" fill="#251910"/>
  <path d="M116 54C121.605 34.36 137.486 23 154 23C168.428 23 181.858 31.129 187 49L173 45L160 50L148 43L132 50L116 54Z" fill="#251910"/>
  <circle cx="133" cy="64" r="4.5" fill="#231915"/>
  <circle cx="162" cy="64" r="4.5" fill="#231915"/>
  <path d="M141 82C145.635 85.286 151.365 85.286 156 82" stroke="#9B5E3F" stroke-width="3.5" stroke-linecap="round"/>
  <path d="M100 121L92 219L115 216L122 129L100 121Z" fill="#B9793E"/>
  <path d="M178 120L186 219L163 216L156 129L178 120Z" fill="#A96837"/>
  <rect x="85" y="113" width="24" height="26" rx="8" fill="#6A4324"/>
  <path d="M85 116C93 110.667 101 110.667 109 116" stroke="#D2A06C" stroke-width="3" stroke-linecap="round"/>
</svg>
